<svg xmlns="http://www.w3.org/2000/svg" xmlns:xlink="http://www.w3.org/1999/xlink" width="2000" zoomAndPan="magnify" viewBox="0 0 1500 1499.999933" height="2000" preserveAspectRatio="xMidYMid meet" version="1.0"><defs><g/><clipPath id="f2db6eaca8"><path d="M 278.113281 681.15625 L 461 681.15625 L 461 846.90625 L 278.113281 846.90625 Z M 278.113281 681.15625 " clip-rule="nonzero"/></clipPath><clipPath id="635a325864"><rect x="0" width="1359" y="0" height="296"/></clipPath></defs><g clip-path="url(#f2db6eaca8)"><path fill="#13111c" d="M 383.820312 798.476562 C 383.878906 798.476562 383.925781 798.433594 383.933594 798.378906 C 383.9375 798.324219 383.902344 798.273438 383.847656 798.261719 C 381.9375 797.839844 380.203125 797.9375 378.664062 798.546875 C 378.453125 798.632812 378.21875 798.632812 378.003906 798.550781 C 377.359375 798.316406 375.910156 798.164062 373.648438 798.097656 C 372.859375 798.070312 371.894531 797.667969 370.757812 796.886719 C 370.632812 796.800781 370.46875 796.878906 370.460938 797.027344 C 370.242188 800.707031 369.34375 803.746094 367.777344 806.148438 C 362.96875 813.527344 356.882812 816.46875 348.921875 819.804688 C 346.414062 820.855469 343.339844 823.582031 343.367188 826.515625 C 343.386719 828.625 344.359375 832.074219 345.320312 833.8125 C 346.457031 835.867188 347.882812 836.867188 350.382812 836.714844 C 353.996094 836.484375 356.359375 838.28125 357.476562 842.085938 C 357.703125 842.84375 357.152344 843.609375 356.359375 843.640625 C 355.480469 843.671875 354.695312 843.886719 354 844.28125 C 353.773438 844.410156 353.523438 844.484375 353.257812 844.5 C 351.285156 844.644531 349.167969 844.671875 346.90625 844.605469 C 342.101562 844.464844 339.609375 841.109375 337.738281 837.304688 C 337.601562 837.027344 337.492188 836.738281 337.40625 836.441406 C 336.261719 832.40625 334.777344 828.832031 332.953125 825.71875 C 331.785156 823.722656 331.515625 820.460938 333.375 818.832031 C 333.46875 818.753906 333.945312 818.28125 334.804688 817.402344 C 334.90625 817.296875 334.804688 817.132812 334.671875 817.167969 C 332.238281 817.765625 330.015625 818.175781 328 818.402344 C 323.515625 818.914062 320.070312 819.925781 316.949219 822.304688 C 311.5625 826.414062 307.683594 830.621094 306.109375 837.460938 C 305.96875 838.09375 306.128906 838.660156 306.589844 839.15625 C 306.761719 839.34375 307.011719 839.441406 307.269531 839.421875 C 310.144531 839.175781 311.828125 840.679688 312.3125 843.929688 C 312.699219 846.480469 310.195312 846.128906 308.652344 846.78125 C 308.371094 846.902344 308.070312 846.964844 307.761719 846.972656 C 303.488281 847.050781 295.703125 847.257812 296.652344 840.496094 C 296.902344 838.695312 297.257812 837.261719 297.726562 836.179688 C 301.503906 827.445312 303.675781 822.894531 305.054688 817.292969 C 305.175781 816.773438 304.640625 816.34375 304.167969 816.585938 C 302.761719 817.292969 301.601562 818.121094 300.6875 819.074219 C 300.613281 819.152344 300.53125 819.214844 300.445312 819.269531 L 293.449219 823.726562 C 293.160156 823.914062 292.804688 823.613281 292.945312 823.296875 L 293.621094 821.789062 C 293.726562 821.546875 293.433594 821.339844 293.242188 821.515625 C 292.148438 822.554688 290.988281 823.410156 289.765625 824.078125 C 288.996094 824.496094 288.363281 824.699219 287.855469 824.691406 C 286.140625 824.660156 284.734375 825.441406 283.320312 825.429688 C 283.105469 825.429688 282.976562 825.183594 283.105469 825.007812 L 284.023438 823.726562 C 284.125 823.582031 283.953125 823.398438 283.800781 823.496094 C 282.597656 824.25 279.925781 825.890625 278.394531 825.550781 C 278.144531 825.496094 278.035156 825.203125 278.179688 824.988281 C 279.355469 823.324219 279.757812 821.386719 279.410156 819.1875 C 279.355469 818.851562 279.359375 818.507812 279.433594 818.167969 C 280.046875 815.375 281.207031 812.875 282.917969 810.667969 C 283.070312 810.472656 282.890625 810.183594 282.644531 810.238281 C 282.167969 810.34375 281.609375 810.65625 280.96875 811.171875 C 280.734375 811.363281 280.402344 811.113281 280.527344 810.835938 C 281.214844 809.28125 282.179688 807.898438 283.425781 806.675781 C 288.746094 801.445312 295.527344 799.375 302.351562 797.058594 C 302.449219 797.023438 302.511719 796.921875 302.492188 796.820312 C 302.480469 796.714844 302.386719 796.640625 302.28125 796.640625 L 299.21875 796.640625 C 298.867188 796.640625 298.71875 796.191406 299.003906 795.976562 C 299.550781 795.566406 300.285156 795.183594 301.214844 794.835938 C 303.296875 794.050781 305.484375 793.273438 307.769531 792.519531 C 312.710938 790.878906 317.117188 787.433594 319.597656 783.097656 C 323.855469 775.660156 326.273438 769.984375 333.183594 766.925781 C 334.382812 766.390625 338.050781 764.070312 344.1875 759.945312 C 345.359375 759.15625 347.226562 758.464844 349.789062 757.871094 C 359.054688 755.726562 373.269531 753.953125 382.511719 751.285156 C 387.605469 749.816406 391.722656 747.507812 394.851562 744.359375 C 397.722656 741.476562 400.285156 739.222656 402.523438 737.589844 C 402.609375 737.527344 402.605469 737.390625 402.519531 737.332031 L 402.292969 737.164062 C 402.273438 737.152344 402.25 737.152344 402.230469 737.164062 L 400.226562 738.289062 C 399.878906 738.484375 399.507812 738.0625 399.753906 737.742188 C 401.609375 735.351562 403.734375 734.222656 406.359375 732.78125 C 406.488281 732.710938 406.542969 732.558594 406.488281 732.421875 C 406.433594 732.289062 406.289062 732.214844 406.148438 732.25 L 404.429688 732.71875 C 404.132812 732.796875 403.90625 732.453125 404.105469 732.214844 C 405.253906 730.828125 407.265625 729.375 409.320312 728.308594 C 411.144531 727.355469 412.480469 726.753906 413.421875 725.84375 C 414.570312 724.738281 415.664062 723.503906 416.695312 722.140625 C 416.773438 722.035156 416.726562 721.878906 416.597656 721.839844 C 414.664062 721.226562 407.164062 718.660156 408.5 715.425781 C 408.648438 715.078125 409.261719 714.660156 410.339844 714.175781 C 412.875 713.03125 416.171875 711.203125 420.226562 708.683594 C 422.222656 707.441406 423.625 704.121094 424.570312 702.515625 C 425.246094 701.367188 426.675781 700.847656 426.320312 699.265625 C 425.976562 697.730469 426.460938 695.914062 427.636719 694.871094 C 427.917969 694.625 428.351562 694.679688 428.554688 695 L 429.730469 696.847656 C 429.820312 696.988281 430 697.03125 430.140625 696.957031 C 432.015625 695.988281 434.15625 694.871094 436.585938 693.597656 C 437.523438 693.105469 438.886719 691.699219 440.667969 689.371094 C 442.246094 687.320312 443.597656 685.207031 444.730469 683.039062 C 444.828125 682.847656 444.960938 682.671875 445.121094 682.523438 C 447.058594 680.734375 448.984375 680.734375 450.902344 682.523438 C 452.714844 684.210938 453.777344 686.511719 454.089844 689.425781 C 454.109375 689.628906 453.886719 690.160156 453.421875 691.023438 C 453.339844 691.171875 453.285156 691.324219 453.253906 691.492188 C 453.027344 692.738281 453.832031 693.390625 453.535156 694.640625 C 453.101562 696.492188 452.4375 698.082031 451.535156 699.410156 C 451.109375 700.035156 450.808594 700.785156 450.636719 701.664062 C 450.570312 701.988281 450.96875 702.203125 451.207031 701.96875 C 452.769531 700.429688 454.25 699.328125 455.648438 698.683594 C 455.863281 698.585938 456.011719 698.382812 456.050781 698.15625 C 456.152344 697.535156 456.320312 696.964844 456.550781 696.441406 C 456.902344 695.644531 457.847656 695.292969 458.628906 695.679688 C 460.816406 696.765625 461.25 699.46875 460.667969 701.539062 C 460.015625 703.875 456.792969 706.152344 455.472656 707.816406 C 453.855469 709.867188 452.824219 712.167969 452.375 714.710938 C 451.878906 717.523438 453.421875 721.734375 454.457031 725.070312 C 454.796875 726.164062 454.746094 727.140625 454.3125 728 C 454.21875 728.179688 454.1875 728.382812 454.21875 728.578125 C 454.445312 730.035156 454.769531 731.070312 455.195312 731.699219 C 455.335938 731.90625 455.1875 732.195312 454.929688 732.195312 L 454.453125 732.195312 C 454.238281 732.195312 454.082031 732.398438 454.140625 732.609375 L 456.855469 742.5625 C 456.914062 742.792969 456.796875 743.039062 456.578125 743.125 C 456.355469 743.214844 456.105469 743.128906 455.988281 742.921875 C 455.65625 742.332031 455.3125 741.886719 454.949219 741.601562 C 454.691406 741.390625 454.328125 741.679688 454.476562 741.980469 C 455.445312 743.910156 455.753906 746.421875 455.402344 749.515625 C 455.359375 749.878906 454.917969 750.027344 454.667969 749.769531 C 454.476562 749.578125 454.347656 749.214844 454.273438 748.695312 C 454.25 748.523438 454.027344 748.46875 453.929688 748.609375 C 453.480469 749.230469 453.292969 749.832031 453.359375 750.402344 C 453.703125 753.570312 453.492188 756.796875 452.738281 760.082031 C 452.660156 760.433594 452.558594 760.679688 452.4375 760.8125 C 452.183594 761.09375 451.710938 760.953125 451.632812 760.574219 C 451.417969 759.585938 451.121094 758.742188 450.742188 758.042969 C 450.59375 757.773438 450.183594 757.851562 450.152344 758.160156 C 449.894531 760.707031 449.402344 764.09375 448.070312 766.734375 C 447.878906 767.113281 447.308594 767.015625 447.246094 766.585938 C 447.214844 766.371094 447.15625 766.230469 447.074219 766.164062 C 446.921875 766.039062 446.699219 766.136719 446.683594 766.328125 C 446.375 769.867188 445.101562 775.554688 442.5 778.21875 C 442.308594 778.417969 441.976562 778.277344 441.988281 778 C 442.027344 777.070312 441.941406 776.285156 441.730469 775.628906 C 441.675781 775.449219 441.425781 775.457031 441.382812 775.640625 C 440.894531 777.882812 440.21875 779.773438 439.355469 781.304688 C 439.292969 781.40625 439.171875 781.449219 439.058594 781.402344 C 438.949219 781.351562 438.894531 781.230469 438.929688 781.121094 C 439.027344 780.804688 439.042969 780.589844 438.96875 780.46875 C 438.867188 780.300781 438.628906 780.320312 438.550781 780.492188 C 437.363281 783.164062 435.65625 785.960938 433.425781 788.878906 C 433.351562 788.976562 433.207031 788.96875 433.136719 788.863281 L 433.039062 788.710938 C 433.035156 788.707031 433.035156 788.691406 433.035156 788.6875 C 433.292969 788.1875 433.425781 787.679688 433.433594 787.144531 C 433.433594 786.984375 433.25 786.898438 433.132812 787.003906 C 430.507812 789.320312 428.757812 792.285156 427.878906 795.902344 C 425.984375 803.730469 424.625 811.105469 423.820312 818.027344 C 423.304688 822.488281 423.367188 827.167969 423.746094 831.210938 C 423.898438 832.8125 424.710938 835.132812 426.441406 836.523438 C 426.757812 836.773438 427.726562 836.929688 429.355469 836.972656 C 432.351562 837.058594 434.292969 838.777344 435.171875 842.128906 C 435.40625 843.015625 434.753906 843.882812 433.84375 843.898438 C 433.285156 843.910156 432.609375 844.089844 431.8125 844.429688 C 431.585938 844.527344 431.34375 844.585938 431.097656 844.613281 C 428.882812 844.851562 426.425781 844.785156 423.726562 844.402344 C 417.855469 843.5625 417.113281 838.808594 416.230469 833.980469 C 415.964844 832.519531 414.980469 832.90625 414.570312 832.03125 C 413.425781 829.625 413.585938 826.664062 413.914062 823.46875 C 414.03125 822.296875 413.859375 821.027344 413.382812 819.644531 C 413.339844 819.507812 413.3125 819.367188 413.292969 819.21875 L 412.972656 815.984375 C 412.949219 815.710938 412.714844 815.515625 412.445312 815.535156 C 412.433594 815.535156 412.363281 815.546875 412.25 815.570312 C 412.039062 815.609375 411.847656 815.460938 411.835938 815.253906 L 411.160156 803.988281 C 411.15625 803.859375 410.984375 803.820312 410.921875 803.933594 C 410.425781 804.785156 410.042969 805.742188 409.777344 806.804688 C 408.808594 810.695312 407.863281 814.558594 406.933594 818.398438 C 406.234375 821.308594 403.175781 836.71875 409.261719 836.449219 C 412.808594 836.296875 414.980469 838.152344 415.796875 842.027344 C 415.953125 842.738281 415.460938 843.433594 414.734375 843.53125 L 413.296875 843.714844 C 413.195312 843.734375 413.089844 843.765625 412.996094 843.8125 C 410.695312 845.03125 405.941406 844.429688 403.230469 843.652344 C 400.179688 842.78125 398.324219 838.957031 398.144531 836.226562 C 397.980469 833.585938 397.855469 832.144531 397.789062 831.890625 C 397.722656 831.65625 397.617188 831.4375 397.480469 831.226562 C 396.617188 829.894531 396.304688 828.324219 396.542969 826.523438 C 396.851562 824.238281 397.414062 819.160156 396.203125 817.519531 C 396.089844 817.351562 396.019531 817.15625 396.019531 816.953125 L 396.019531 809.871094 C 396.019531 809.792969 395.972656 809.710938 395.898438 809.679688 L 395.75 809.613281 C 395.683594 809.582031 395.632812 809.519531 395.628906 809.449219 C 395.5 808.15625 395.375 802.832031 396.320312 800.859375 C 396.445312 800.601562 396.246094 800.308594 395.964844 800.328125 L 387.488281 800.828125 C 387.359375 800.835938 387.261719 800.707031 387.316406 800.585938 C 387.476562 800.222656 387.683594 799.996094 387.941406 799.890625 C 388.1875 799.792969 388.121094 799.429688 387.855469 799.429688 L 382.777344 799.429688 C 382.527344 799.429688 382.382812 799.148438 382.527344 798.945312 C 382.742188 798.644531 383.171875 798.484375 383.820312 798.476562 Z M 383.820312 798.476562 " fill-opacity="1" fill-rule="nonzero"/></g><g transform="matrix(1, 0, 0, 1, 78, 637)"><g clip-path="url(#635a325864)"><g fill="#13111c" fill-opacity="1"><g transform="translate(1.678953, 211.274224)"><g><path d="M 12.609375 -76.75 C 12.609375 -99.332031 20.316406 -118.570312 35.734375 -134.46875 C 51.160156 -150.375 69.472656 -158.328125 90.671875 -158.328125 C 97.253906 -158.328125 103.46875 -157.117188 109.3125 -154.703125 C 115.15625 -152.296875 119.429688 -150.050781 122.140625 -147.96875 C 124.847656 -145.882812 128.140625 -142.90625 132.015625 -139.03125 L 143.296875 -155.578125 C 144.472656 -157.410156 145.660156 -158.328125 146.859375 -158.328125 C 148.066406 -158.328125 148.78125 -157.976562 149 -157.28125 C 149.21875 -156.582031 149.328125 -155.140625 149.328125 -152.953125 L 149.328125 -99.671875 C 149.328125 -97.253906 149.179688 -95.753906 148.890625 -95.171875 C 148.597656 -94.585938 147.539062 -94.296875 145.71875 -94.296875 C 144.25 -94.296875 143.347656 -94.515625 143.015625 -94.953125 C 142.691406 -95.390625 142.382812 -96.445312 142.09375 -98.125 C 139.832031 -114.28125 134.222656 -127.179688 125.265625 -136.828125 C 116.304688 -146.484375 105.617188 -151.3125 93.203125 -151.3125 C 89.617188 -151.3125 85.832031 -150.90625 81.84375 -150.09375 C 77.863281 -149.289062 73.003906 -147.351562 67.265625 -144.28125 C 61.523438 -141.21875 56.441406 -137.144531 52.015625 -132.0625 C 47.597656 -126.976562 43.78125 -119.628906 40.5625 -110.015625 C 37.351562 -100.410156 35.75 -89.25 35.75 -76.53125 C 35.75 -63.957031 37.351562 -52.84375 40.5625 -43.1875 C 43.78125 -33.539062 47.597656 -26.210938 52.015625 -21.203125 C 56.441406 -16.203125 61.523438 -12.164062 67.265625 -9.09375 C 73.003906 -6.03125 77.898438 -4.078125 81.953125 -3.234375 C 86.015625 -2.390625 89.835938 -1.96875 93.421875 -1.96875 C 106.285156 -1.96875 117.648438 -6.535156 127.515625 -15.671875 C 137.378906 -24.816406 142.785156 -37.097656 143.734375 -52.515625 C 143.878906 -53.242188 143.953125 -53.773438 143.953125 -54.109375 C 143.953125 -54.441406 144.023438 -54.789062 144.171875 -55.15625 C 144.328125 -55.519531 144.585938 -55.773438 144.953125 -55.921875 C 145.316406 -56.066406 145.789062 -56.140625 146.375 -56.140625 C 148.34375 -56.140625 149.328125 -54.859375 149.328125 -52.296875 C 149.328125 -38.046875 143.863281 -24.941406 132.9375 -12.984375 C 122.007812 -1.035156 107.921875 4.9375 90.671875 4.9375 C 69.398438 4.9375 51.070312 -2.957031 35.6875 -18.75 C 20.300781 -34.539062 12.609375 -53.875 12.609375 -76.75 Z M 12.609375 -76.75 "/></g></g></g><g fill="#13111c" fill-opacity="1"><g transform="translate(163.752036, 211.274224)"><g/></g></g><g fill="#13111c" fill-opacity="1"><g transform="translate(238.419509, 211.274224)"><g/></g></g><g fill="#13111c" fill-opacity="1"><g transform="translate(313.086981, 211.274224)"><g/></g></g><g fill="#13111c" fill-opacity="1"><g transform="translate(387.754453, 211.274224)"><g/></g></g><g fill="#13111c" fill-opacity="1"><g transform="translate(462.428956, 211.274224)"><g><path d="M 7.890625 0 L 7.890625 -6.90625 L 13.265625 -6.90625 C 21.378906 -6.90625 26.367188 -7.582031 28.234375 -8.9375 C 30.097656 -10.289062 31.03125 -13.160156 31.03125 -17.546875 L 31.03125 -135.84375 C 31.03125 -140.15625 30.078125 -142.988281 28.171875 -144.34375 C 26.273438 -145.695312 21.304688 -146.375 13.265625 -146.375 L 7.890625 -146.375 L 7.890625 -153.390625 L 78.390625 -153.390625 C 94.691406 -153.390625 108.523438 -149.382812 119.890625 -141.375 C 131.253906 -133.375 136.9375 -123.894531 136.9375 -112.9375 C 136.9375 -104.53125 133.242188 -97.035156 125.859375 -90.453125 C 118.484375 -83.878906 109.09375 -79.164062 97.6875 -76.3125 C 112.53125 -71.195312 121.664062 -62.535156 125.09375 -50.328125 L 127.953125 -32.34375 C 128.535156 -28.03125 129.023438 -24.773438 129.421875 -22.578125 C 129.828125 -20.390625 130.359375 -17.796875 131.015625 -14.796875 C 131.679688 -11.804688 132.359375 -9.597656 133.046875 -8.171875 C 133.742188 -6.742188 134.601562 -5.28125 135.625 -3.78125 C 136.644531 -2.28125 137.832031 -1.273438 139.1875 -0.765625 C 140.539062 -0.253906 142.128906 0 143.953125 0 C 147.390625 0 150.570312 -1.53125 153.5 -4.59375 C 156.425781 -7.664062 158.179688 -12.785156 158.765625 -19.953125 C 159.054688 -22.367188 159.96875 -23.578125 161.5 -23.578125 C 163.40625 -23.578125 164.359375 -22.367188 164.359375 -19.953125 C 164.359375 -17.835938 164.0625 -15.550781 163.46875 -13.09375 C 162.882812 -10.644531 161.878906 -7.992188 160.453125 -5.140625 C 159.035156 -2.296875 156.789062 0.09375 153.71875 2.03125 C 150.644531 3.96875 147.097656 4.9375 143.078125 4.9375 C 131.390625 4.9375 121.960938 1.789062 114.796875 -4.5 C 111.796875 -7.195312 109.617188 -10.300781 108.265625 -13.8125 C 106.921875 -17.320312 106.132812 -20.460938 105.90625 -23.234375 C 105.6875 -26.015625 105.578125 -30.476562 105.578125 -36.625 C 105.578125 -45.320312 105.117188 -51.570312 104.203125 -55.375 C 103.296875 -59.175781 100.90625 -62.9375 97.03125 -66.65625 C 91.769531 -71.78125 84.789062 -74.34375 76.09375 -74.34375 L 50.328125 -74.34375 L 50.328125 -17.546875 C 50.328125 -13.234375 51.257812 -10.378906 53.125 -8.984375 C 54.988281 -7.597656 59.976562 -6.90625 68.09375 -6.90625 L 73.453125 -6.90625 L 73.453125 0 C 68.046875 -0.4375 57.117188 -0.65625 40.671875 -0.65625 C 24.222656 -0.65625 13.296875 -0.4375 7.890625 0 Z M 50.328125 -79.265625 L 75.21875 -79.265625 C 83.1875 -79.265625 89.851562 -80.234375 95.21875 -82.171875 C 100.59375 -84.109375 104.554688 -86.832031 107.109375 -90.34375 C 109.671875 -93.851562 111.425781 -97.378906 112.375 -100.921875 C 113.332031 -104.472656 113.8125 -108.476562 113.8125 -112.9375 C 113.8125 -118.195312 113.222656 -122.800781 112.046875 -126.75 C 110.878906 -130.695312 109.015625 -133.835938 106.453125 -136.171875 C 103.898438 -138.515625 101.34375 -140.429688 98.78125 -141.921875 C 96.226562 -143.421875 92.976562 -144.460938 89.03125 -145.046875 C 85.082031 -145.640625 81.753906 -146.007812 79.046875 -146.15625 C 76.347656 -146.300781 72.84375 -146.375 68.53125 -146.375 C 61.21875 -146.375 56.796875 -146.226562 55.265625 -145.9375 C 53.578125 -145.789062 52.40625 -145.3125 51.75 -144.5 C 51.09375 -143.695312 50.691406 -142.835938 50.546875 -141.921875 C 50.398438 -141.015625 50.328125 -139.5 50.328125 -137.375 Z M 50.328125 -79.265625 "/></g></g></g><g fill="#13111c" fill-opacity="1"><g transform="translate(627.662259, 211.274224)"><g/></g></g><g fill="#13111c" fill-opacity="1"><g transform="translate(702.329732, 211.274224)"><g><path d="M 2.515625 -146.375 L 2.515625 -153.390625 C 11.953125 -152.953125 21.675781 -152.734375 31.6875 -152.734375 C 48.425781 -152.734375 59.5 -152.953125 64.90625 -153.390625 L 64.90625 -146.375 C 59.351562 -146.375 55.351562 -146.003906 52.90625 -145.265625 C 50.457031 -144.535156 49.234375 -143.039062 49.234375 -140.78125 C 49.234375 -139.757812 49.742188 -138.476562 50.765625 -136.9375 L 91.4375 -70.71875 L 128.390625 -130.90625 C 129.847656 -133.175781 130.613281 -135.40625 130.6875 -137.59375 C 130.6875 -140.15625 129.644531 -142.257812 127.5625 -143.90625 C 125.476562 -145.550781 122.242188 -146.375 117.859375 -146.375 L 117.859375 -153.390625 C 129.554688 -152.953125 138.179688 -152.734375 143.734375 -152.734375 C 151.484375 -152.734375 158.796875 -152.953125 165.671875 -153.390625 L 165.671875 -146.375 C 152.367188 -146.375 142.789062 -141.515625 136.9375 -131.796875 L 93.640625 -61.296875 L 93.640625 -17.984375 C 93.640625 -13.378906 94.566406 -10.378906 96.421875 -8.984375 C 98.285156 -7.597656 103.347656 -6.90625 111.609375 -6.90625 L 116.765625 -6.90625 L 116.765625 0 C 111.359375 -0.4375 100.429688 -0.65625 83.984375 -0.65625 C 67.535156 -0.65625 56.609375 -0.4375 51.203125 0 L 51.203125 -6.90625 L 56.578125 -6.90625 C 64.691406 -6.90625 69.679688 -7.582031 71.546875 -8.9375 C 73.410156 -10.289062 74.34375 -13.160156 74.34375 -17.546875 L 74.34375 -61.296875 L 27.1875 -138.15625 C 25.875 -140.414062 24.6875 -142.019531 23.625 -142.96875 C 22.5625 -143.925781 20.675781 -144.734375 17.96875 -145.390625 C 15.269531 -146.046875 11.4375 -146.375 6.46875 -146.375 Z M 2.515625 -146.375 "/></g></g></g><g fill="#13111c" fill-opacity="1"><g transform="translate(870.742707, 211.274224)"><g/></g></g><g fill="#13111c" fill-opacity="1"><g transform="translate(945.410179, 211.274224)"><g><path d="M 4.28125 -146.375 L 4.28125 -153.390625 C 20.425781 -152.953125 29.925781 -152.734375 32.78125 -152.734375 C 48.789062 -152.734375 59.5 -152.953125 64.90625 -153.390625 L 64.90625 -146.375 C 52.625 -146.375 46.484375 -144.21875 46.484375 -139.90625 C 46.484375 -139.320312 46.921875 -137.96875 47.796875 -135.84375 L 90.671875 -22.484375 L 131.796875 -130.6875 C 132.523438 -132.957031 132.890625 -134.457031 132.890625 -135.1875 C 132.890625 -138.1875 131.515625 -140.765625 128.765625 -142.921875 C 126.023438 -145.078125 121.953125 -146.226562 116.546875 -146.375 L 116.546875 -153.390625 C 128.242188 -152.953125 136.757812 -152.734375 142.09375 -152.734375 C 149.695312 -152.734375 156.972656 -152.953125 163.921875 -153.390625 L 163.921875 -146.375 C 151.347656 -146.226562 143.195312 -141.21875 139.46875 -131.34375 L 89.359375 0.65625 C 88.773438 2.488281 88.191406 3.660156 87.609375 4.171875 C 87.023438 4.679688 85.816406 4.9375 83.984375 4.9375 C 82.523438 4.9375 81.410156 4.640625 80.640625 4.046875 C 79.867188 3.460938 79.117188 2.113281 78.390625 0 L 26.3125 -137.8125 C 24.851562 -141.832031 22.804688 -144.265625 20.171875 -145.109375 C 17.546875 -145.953125 12.25 -146.375 4.28125 -146.375 Z M 4.28125 -146.375 "/></g></g></g><g fill="#13111c" fill-opacity="1"><g transform="translate(1113.823155, 211.274224)"><g/></g></g><g fill="#13111c" fill-opacity="1"><g transform="translate(1188.490627, 211.274224)"><g><path d="M 7.453125 0 L 7.453125 -6.90625 C 12.859375 -6.90625 17.28125 -7.4375 20.71875 -8.5 C 24.15625 -9.5625 26.492188 -11.097656 27.734375 -13.109375 C 28.984375 -15.117188 29.769531 -16.796875 30.09375 -18.140625 C 30.425781 -19.492188 30.59375 -21.304688 30.59375 -23.578125 L 30.59375 -140.78125 C 30.59375 -142.894531 30.316406 -144.207031 29.765625 -144.71875 C 29.222656 -145.238281 27.671875 -145.644531 25.109375 -145.9375 C 20.648438 -146.226562 16.921875 -146.375 13.921875 -146.375 L 7.453125 -146.375 L 7.453125 -153.390625 L 45.609375 -153.390625 C 47.734375 -153.390625 49.085938 -153.242188 49.671875 -152.953125 C 50.253906 -152.660156 51.054688 -151.816406 52.078125 -150.421875 L 131.34375 -33.875 L 131.34375 -129.8125 C 131.34375 -132.082031 131.195312 -133.875 130.90625 -135.1875 C 130.613281 -136.5 129.828125 -138.175781 128.546875 -140.21875 C 127.273438 -142.269531 124.921875 -143.804688 121.484375 -144.828125 C 118.046875 -145.859375 113.625 -146.375 108.21875 -146.375 L 108.21875 -153.390625 C 123.9375 -152.953125 132.6875 -152.734375 134.46875 -152.734375 C 136.257812 -152.734375 145.015625 -152.953125 160.734375 -153.390625 L 160.734375 -146.375 C 155.328125 -146.375 150.90625 -145.859375 147.46875 -144.828125 C 144.03125 -143.804688 141.691406 -142.269531 140.453125 -140.21875 C 139.210938 -138.175781 138.425781 -136.476562 138.09375 -135.125 C 137.757812 -133.78125 137.59375 -132.007812 137.59375 -129.8125 L 137.59375 -5.8125 C 137.59375 -3.394531 137.445312 -1.820312 137.15625 -1.09375 C 136.863281 -0.363281 135.988281 0 134.53125 0 C 133.507812 0 132.226562 -0.984375 130.6875 -2.953125 L 39.03125 -137.59375 C 38.445312 -138.476562 37.71875 -139.394531 36.84375 -140.34375 L 36.84375 -23.578125 C 36.84375 -21.304688 36.988281 -19.492188 37.28125 -18.140625 C 37.570312 -16.796875 38.351562 -15.117188 39.625 -13.109375 C 40.90625 -11.097656 43.265625 -9.5625 46.703125 -8.5 C 50.140625 -7.4375 54.5625 -6.90625 59.96875 -6.90625 L 59.96875 0 C 44.257812 -0.4375 35.507812 -0.65625 33.71875 -0.65625 C 31.925781 -0.65625 23.171875 -0.4375 7.453125 0 Z M 7.453125 0 "/></g></g></g></g></g><path stroke-linecap="butt" transform="matrix(0.75, 0, 0, 0.75, 86.415319, 912.757101)" fill="none" stroke-linejoin="miter" d="M -0.00167494 9.500949 L 1769.560977 9.500949 " stroke="#13111c" stroke-width="19" stroke-opacity="1" stroke-miterlimit="4"/></svg>